<svg id="visual" viewBox="0 0 1500 900" width="1500" height="900" xmlns="http://www.w3.org/2000/svg" xmlns:xlink="http://www.w3.org/1999/xlink" version="1.1"><rect x="0" y="0" width="1500" height="900" fill="#c4ebd3"></rect><path d="M491 900L510 900L510 800L554 800L554 700L573 700L573 600L755 600L755 500L406 500L406 400L430 400L430 300L566 300L566 200L414 200L414 100L402 100L402 0L1500 0L1500 100L1500 100L1500 200L1500 200L1500 300L1500 300L1500 400L1500 400L1500 500L1500 500L1500 600L1500 600L1500 700L1500 700L1500 800L1500 800L1500 900L1500 900Z" fill="#4facf7"></path><path d="M567 900L587 900L587 800L790 800L790 700L682 700L682 600L756 600L756 500L838 500L838 400L907 400L907 300L764 300L764 200L815 200L815 100L815 100L815 0L1500 0L1500 100L1500 100L1500 200L1500 200L1500 300L1500 300L1500 400L1500 400L1500 500L1500 500L1500 600L1500 600L1500 700L1500 700L1500 800L1500 800L1500 900L1500 900Z" fill="#1babe4"></path><path d="M1002 900L1040 900L1040 800L916 800L916 700L1032 700L1032 600L961 600L961 500L857 500L857 400L707 400L707 300L964 300L964 200L964 200L964 100L941 100L941 0L1500 0L1500 100L1500 100L1500 200L1500 200L1500 300L1500 300L1500 400L1500 400L1500 500L1500 500L1500 600L1500 600L1500 700L1500 700L1500 800L1500 800L1500 900L1500 900Z" fill="#00a8cd"></path><path d="M1155 900L1109 900L1109 800L1159 800L1159 700L977 700L977 600L951 600L951 500L1117 500L1117 400L973 400L973 300L1094 300L1094 200L949 200L949 100L1042 100L1042 0L1500 0L1500 100L1500 100L1500 200L1500 200L1500 300L1500 300L1500 400L1500 400L1500 500L1500 500L1500 600L1500 600L1500 700L1500 700L1500 800L1500 800L1500 900L1500 900Z" fill="#00a3b4"></path><path d="M1093 900L1057 900L1057 800L1180 800L1180 700L1051 700L1051 600L1241 600L1241 500L1200 500L1200 400L1263 400L1263 300L1137 300L1137 200L1202 200L1202 100L1153 100L1153 0L1500 0L1500 100L1500 100L1500 200L1500 200L1500 300L1500 300L1500 400L1500 400L1500 500L1500 500L1500 600L1500 600L1500 700L1500 700L1500 800L1500 800L1500 900L1500 900Z" fill="#009d96"></path><path d="M1394 900L1237 900L1237 800L1306 800L1306 700L1384 700L1384 600L1389 600L1389 500L1330 500L1330 400L1316 400L1316 300L1271 300L1271 200L1339 200L1339 100L1248 100L1248 0L1500 0L1500 100L1500 100L1500 200L1500 200L1500 300L1500 300L1500 400L1500 400L1500 500L1500 500L1500 600L1500 600L1500 700L1500 700L1500 800L1500 800L1500 900L1500 900Z" fill="#009473"></path></svg>