<svg id="visual" viewBox="0 0 100 100" width="100" height="100" xmlns="http://www.w3.org/2000/svg" xmlns:xlink="http://www.w3.org/1999/xlink" version="1.1"><path d="M0 38L9 36L18 32L27 27L36 18L45 24L55 40L64 29L73 22L82 21L91 37L100 42L100 0L91 0L82 0L73 0L64 0L55 0L45 0L36 0L27 0L18 0L9 0L0 0Z" fill="#00cc8e"></path><path d="M0 54L9 45L18 45L27 44L36 27L45 34L55 55L64 38L73 34L82 37L91 46L100 55L100 40L91 35L82 19L73 20L64 27L55 38L45 22L36 16L27 25L18 30L9 34L0 36Z" fill="#00b98a"></path><path d="M0 68L9 54L18 62L27 59L36 48L45 45L55 62L64 56L73 52L82 47L91 58L100 68L100 53L91 44L82 35L73 32L64 36L55 53L45 32L36 25L27 42L18 43L9 43L0 52Z" fill="#00a784"></path><path d="M0 83L9 87L18 85L27 91L36 87L45 85L55 82L64 85L73 81L82 75L91 86L100 88L100 66L91 56L82 45L73 50L64 54L55 60L45 43L36 46L27 57L18 60L9 52L0 66Z" fill="#00957c"></path><path d="M0 101L9 101L18 101L27 101L36 101L45 101L55 101L64 101L73 101L82 101L91 101L100 101L100 86L91 84L82 73L73 79L64 83L55 80L45 83L36 85L27 89L18 83L9 85L0 81Z" fill="#038373"></path></svg>